<?xml version="1.0" encoding="UTF-8"?>
<svg xmlns="http://www.w3.org/2000/svg" xmlns:xlink="http://www.w3.org/1999/xlink" width="480pt" height="480pt" viewBox="0 0 480 480" version="1.1">
<g id="surface1">
<path style=" stroke:none;fill-rule:nonzero;fill:#30CAD6;fill-opacity:1;" d="M 94.738281 47.367188 C 77.28125 47.367188 63.15625 61.492188 63.15625 78.949219 L 63.15625 173.683594 C 63.15625 187.066406 71.667969 199.035156 84.3125 203.472656 C 87.644531 204.644531 91.160156 205.261719 94.738281 205.261719 C 94.859375 205.261719 94.984375 205.261719 95.105469 205.261719 L 284.210938 236.84375 L 95.105469 268.421875 C 94.984375 268.421875 94.859375 268.421875 94.738281 268.421875 C 91.160156 268.421875 87.644531 269.039063 84.25 270.210938 C 71.667969 274.652344 63.15625 286.617188 63.15625 300 L 63.15625 394.738281 C 63.15625 412.191406 77.28125 426.316406 94.738281 426.316406 C 100.226563 426.316406 105.652344 424.835938 110.402344 422.121094 L 432.484375 251.398438 L 432.484375 251.335938 C 438.34375 248.871094 442.105469 243.132813 442.105469 236.84375 C 442.105469 230.488281 438.34375 224.753906 432.484375 222.285156 L 110.402344 51.5625 C 105.652344 48.847656 100.226563 47.367188 94.738281 47.367188 Z "/>
</g>
</svg>
