<?xml version="1.0" encoding="UTF-8"?>
<svg xmlns="http://www.w3.org/2000/svg" xmlns:xlink="http://www.w3.org/1999/xlink" width="500pt" height="500pt" viewBox="0 0 500 500" version="1.1">
<g id="surface1">
<path style=" stroke:none;fill-rule:nonzero;fill:#C7EDE6;fill-opacity:1;" d="M 436.074219 283.550781 C 441.75 272.773438 445 260.523438 445 247.5 C 445 214.394531 424.203125 186.214844 394.996094 175.109375 C 394.996094 175.074219 395 175.039063 395 175 C 395 117.011719 347.988281 70 290 70 C 241.078125 70 200.09375 103.503906 188.433594 148.785156 C 181.054688 146.359375 173.191406 145 165 145 C 126.539063 145 94.886719 173.964844 90.550781 211.261719 C 64.53125 216.765625 45 239.84375 45 267.5 C 45 299.253906 70.746094 325 102.5 325 C 103.386719 325 104.261719 324.941406 105.128906 324.890625 C 105.109375 325.765625 105 326.621094 105 327.5 C 105 384.109375 150.890625 430 207.5 430 C 239.683594 430 268.375 415.140625 287.171875 391.929688 C 298.058594 403.054688 313.199219 410 330 410 C 353.25 410 373.371094 396.75 383.328125 377.410156 C 388.589844 379.085938 394.183594 380 400 380 C 430.375 380 455 355.375 455 325 C 455 308.445313 447.648438 293.636719 436.074219 283.550781 Z "/>
<path style=" stroke:none;fill-rule:nonzero;fill:#FDFCEF;fill-opacity:1;" d="M 325.625 232.5 C 325.625 232.5 307.425781 232.5 295 232.5 C 282.574219 232.5 272.5 222.425781 272.5 210 C 272.5 198.335938 281.410156 188.855469 292.773438 187.726563 C 292.664063 186.820313 292.5 185.933594 292.5 185 C 292.5 172.574219 302.574219 162.5 315 162.5 C 322.191406 162.5 328.515625 165.929688 332.636719 171.179688 C 333.335938 158 344.144531 147.5 357.5 147.5 C 371.304688 147.5 382.5 158.695313 382.5 172.5 C 382.5 174.730469 382.113281 176.851563 381.566406 178.910156 C 384.773438 175.023438 389.566406 172.5 395 172.5 C 403.90625 172.5 411.171875 179.175781 412.273438 187.773438 C 413.179688 187.664063 414.066406 187.5 415 187.5 C 427.425781 187.5 437.5 197.574219 437.5 210 C 437.5 222.425781 427.425781 232.5 415 232.5 C 402.574219 232.5 367.5 232.5 367.5 232.5 L 340.625 232.5 L 340.625 235 L 325.625 235 Z "/>
<path style=" stroke:none;fill-rule:nonzero;fill:#472B29;fill-opacity:1;" d="M 357.5 145 C 372.664063 145 385 157.335938 385 172.5 C 385 172.578125 385 172.65625 385 172.734375 C 388.011719 170.960938 391.449219 170 395 170 C 404.15625 170 412.054688 176.304688 414.289063 185.023438 C 414.523438 185.011719 414.761719 185 415 185 C 428.785156 185 440 196.214844 440 210 C 440 223.785156 428.785156 235 415 235 L 340.625 235 C 339.246094 235 338.125 233.878906 338.125 232.5 C 338.125 231.121094 339.246094 230 340.625 230 L 415 230 C 426.03125 230 435 221.03125 435 210 C 435 198.96875 426.03125 190 415 190 C 414.414063 190 413.851563 190.085938 413.285156 190.160156 L 412.578125 190.253906 C 412.476563 190.269531 412.375 190.273438 412.269531 190.273438 C 411.039063 190.273438 409.960938 189.351563 409.796875 188.089844 C 408.839844 180.625 402.480469 175 395 175 C 390.574219 175 386.386719 177.003906 383.496094 180.5 C 383.003906 181.089844 382.289063 181.410156 381.566406 181.410156 C 381.175781 181.410156 380.785156 181.320313 380.425781 181.128906 C 379.378906 180.59375 378.855469 179.398438 379.15625 178.265625 C 379.730469 176.089844 380 174.261719 380 172.5 C 380 160.09375 369.90625 150 357.5 150 C 345.59375 150 335.765625 159.359375 335.128906 171.316406 C 335.074219 172.355469 334.378906 173.25 333.386719 173.566406 C 333.136719 173.644531 332.878906 173.683594 332.625 173.683594 C 331.875 173.683594 331.144531 173.339844 330.664063 172.726563 C 326.808594 167.816406 321.105469 165 315 165 C 303.96875 165 295 173.96875 295 185 C 295 185.585938 295.085938 186.148438 295.160156 186.714844 L 295.253906 187.421875 C 295.335938 188.089844 295.144531 188.761719 294.726563 189.285156 C 294.304688 189.808594 293.691406 190.144531 293.023438 190.210938 C 282.746094 191.234375 275 199.746094 275 210 C 275 221.03125 283.96875 230 295 230 L 325.625 230 C 327.003906 230 328.125 231.121094 328.125 232.5 C 328.125 233.878906 327.003906 235 325.625 235 L 295 235 C 281.214844 235 270 223.785156 270 210 C 270 198.015625 278.445313 187.933594 290.015625 185.613281 C 290.003906 185.410156 290 185.203125 290 185 C 290 171.214844 301.214844 160 315 160 C 320.878906 160 326.464844 162.078125 330.914063 165.820313 C 333.90625 153.800781 344.726563 145 357.5 145 Z "/>
<path style=" stroke:none;fill-rule:nonzero;fill:#472B29;fill-opacity:1;" d="M 365 180 C 372.015625 180 378.046875 184.996094 379.566406 191.703125 C 381.398438 190.59375 383.496094 190 385.625 190 C 391.636719 190 396.613281 194.484375 397.390625 200.339844 C 398.40625 200.109375 399.371094 200 400.316406 200 C 407.960938 200 414.371094 206 414.90625 213.660156 C 414.949219 214.351563 414.429688 214.949219 413.746094 215 C 413.714844 215 413.683594 215 413.65625 215 C 413.003906 215 412.453125 214.496094 412.410156 213.839844 C 411.964844 207.484375 406.65625 202.5 400.316406 202.5 C 399.171875 202.5 397.964844 202.710938 396.625 203.136719 C 396.515625 203.171875 396.398438 203.183594 396.289063 203.183594 C 396.015625 203.183594 395.738281 203.085938 395.511719 202.914063 C 395.191406 202.683594 395 202.273438 395 201.875 C 395 196.703125 390.796875 192.5 385.625 192.5 C 383.390625 192.5 381.199219 193.339844 379.46875 194.863281 C 379.234375 195.070313 378.941406 195.179688 378.644531 195.179688 C 378.484375 195.179688 378.328125 195.148438 378.179688 195.085938 C 377.738281 194.910156 377.441406 194.5 377.40625 194.023438 C 376.886719 187.558594 371.441406 182.5 365 182.5 C 363.960938 182.5 362.875 182.671875 361.589844 183.035156 C 361.476563 183.070313 361.355469 183.085938 361.238281 183.085938 C 360.695313 183.085938 360.203125 182.71875 360.046875 182.175781 C 359.855469 181.511719 360.238281 180.820313 360.90625 180.628906 C 362.414063 180.199219 363.71875 180 365 180 Z "/>
<path style=" stroke:none;fill-rule:nonzero;fill:#472B29;fill-opacity:1;" d="M 295.585938 187.5 C 302.214844 187.5 308.125 191.984375 309.953125 198.410156 C 310.144531 199.074219 309.761719 199.765625 309.09375 199.953125 C 308.976563 199.984375 308.859375 200 308.75 200 C 308.203125 200 307.703125 199.640625 307.550781 199.089844 C 306.023438 193.738281 301.105469 190 295.585938 190 C 295 190 294.433594 190.070313 293.875 190.144531 C 293.816406 190.15625 293.761719 190.160156 293.699219 190.160156 C 293.09375 190.160156 292.554688 189.699219 292.46875 189.074219 C 292.375 188.390625 292.855469 187.761719 293.539063 187.671875 C 294.210938 187.578125 294.890625 187.5 295.585938 187.5 Z "/>
<path style=" stroke:none;fill-rule:nonzero;fill:#FFFFFF;fill-opacity:1;" d="M 132.023438 185 L 82.5 185 C 81.121094 185 80 183.878906 80 182.5 C 80 181.121094 81.121094 180 82.5 180 L 132.023438 180 C 133.40625 180 134.523438 181.121094 134.523438 182.5 C 134.523438 183.878906 133.410156 185 132.023438 185 Z "/>
<path style=" stroke:none;fill-rule:nonzero;fill:#FFFFFF;fill-opacity:1;" d="M 147.5 185 L 142.5 185 C 141.121094 185 140 183.878906 140 182.5 C 140 181.121094 141.121094 180 142.5 180 L 147.5 180 C 148.878906 180 150 181.121094 150 182.5 C 150 183.878906 148.886719 185 147.5 185 Z "/>
<path style=" stroke:none;fill-rule:nonzero;fill:#FFFFFF;fill-opacity:1;" d="M 172.453125 195 L 127.5 195 C 126.121094 195 125 193.878906 125 192.5 C 125 191.121094 126.121094 190 127.5 190 L 172.453125 190 C 173.835938 190 174.953125 191.121094 174.953125 192.5 C 174.953125 193.878906 173.835938 195 172.453125 195 Z "/>
<path style=" stroke:none;fill-rule:nonzero;fill:#FFFFFF;fill-opacity:1;" d="M 117.5 195 L 112.5 195 C 111.121094 195 110 193.878906 110 192.5 C 110 191.121094 111.121094 190 112.5 190 L 117.5 190 C 118.878906 190 120 191.121094 120 192.5 C 120 193.878906 118.886719 195 117.5 195 Z "/>
<path style=" stroke:none;fill-rule:nonzero;fill:#FFFFFF;fill-opacity:1;" d="M 102.5 195 L 92.5 195 C 91.121094 195 90 193.878906 90 192.5 C 90 191.121094 91.121094 190 92.5 190 L 102.5 190 C 103.878906 190 105 191.121094 105 192.5 C 105 193.878906 103.886719 195 102.5 195 Z "/>
<path style=" stroke:none;fill-rule:nonzero;fill:#FFFFFF;fill-opacity:1;" d="M 132.5 205 L 122.5 205 C 121.121094 205 120 203.878906 120 202.5 C 120 201.121094 121.121094 200 122.5 200 L 132.5 200 C 133.878906 200 135 201.121094 135 202.5 C 135 203.878906 133.878906 205 132.5 205 Z "/>
<path style=" stroke:none;fill-rule:nonzero;fill:#FFFFFF;fill-opacity:1;" d="M 147.5 160 C 146.613281 160 143.386719 160 142.5 160 C 141.121094 160 140 161.121094 140 162.5 C 140 163.878906 141.121094 165 142.5 165 C 143.386719 165 146.613281 165 147.5 165 C 148.878906 165 150 163.878906 150 162.5 C 150 161.121094 148.878906 160 147.5 160 Z "/>
<path style=" stroke:none;fill-rule:nonzero;fill:#FFFFFF;fill-opacity:1;" d="M 147.5 170 C 146.613281 170 123.386719 170 122.5 170 C 121.121094 170 120 171.121094 120 172.5 C 120 173.878906 121.121094 175 122.5 175 C 123.386719 175 146.613281 175 147.5 175 C 148.878906 175 150 173.878906 150 172.5 C 150 171.121094 148.878906 170 147.5 170 Z "/>
<path style=" stroke:none;fill-rule:nonzero;fill:#FFFFFF;fill-opacity:1;" d="M 172.5 180 C 171.613281 180 158.386719 180 157.5 180 C 156.121094 180 155 181.121094 155 182.5 C 155 183.878906 156.121094 185 157.5 185 C 158.386719 185 171.613281 185 172.5 185 C 173.878906 185 175 183.878906 175 182.5 C 175 181.121094 173.878906 180 172.5 180 Z "/>
<path style=" stroke:none;fill-rule:nonzero;fill:#FFFFFF;fill-opacity:1;" d="M 427.5 295 L 377.5 295 C 376.121094 295 375 293.878906 375 292.5 C 375 291.121094 376.121094 290 377.5 290 L 427.5 290 C 428.878906 290 430 291.121094 430 292.5 C 430 293.878906 428.878906 295 427.5 295 Z "/>
<path style=" stroke:none;fill-rule:nonzero;fill:#FFFFFF;fill-opacity:1;" d="M 447.5 295 L 437.5 295 C 436.121094 295 435 293.878906 435 292.5 C 435 291.121094 436.121094 290 437.5 290 L 447.5 290 C 448.878906 290 450 291.121094 450 292.5 C 450 293.878906 448.878906 295 447.5 295 Z "/>
<path style=" stroke:none;fill-rule:nonzero;fill:#FFFFFF;fill-opacity:1;" d="M 472.5 305 L 422.5 305 C 421.121094 305 420 303.878906 420 302.5 C 420 301.121094 421.121094 300 422.5 300 L 472.5 300 C 473.878906 300 475 301.121094 475 302.5 C 475 303.878906 473.886719 305 472.5 305 Z "/>
<path style=" stroke:none;fill-rule:nonzero;fill:#FFFFFF;fill-opacity:1;" d="M 412.5 305 L 407.5 305 C 406.121094 305 405 303.878906 405 302.5 C 405 301.121094 406.121094 300 407.5 300 L 412.5 300 C 413.878906 300 415 301.121094 415 302.5 C 415 303.878906 413.878906 305 412.5 305 Z "/>
<path style=" stroke:none;fill-rule:nonzero;fill:#FFFFFF;fill-opacity:1;" d="M 396.875 305 L 387.5 305 C 386.121094 305 385 303.878906 385 302.5 C 385 301.121094 386.121094 300 387.5 300 L 396.875 300 C 398.253906 300 399.375 301.121094 399.375 302.5 C 399.375 303.878906 398.253906 305 396.875 305 Z "/>
<path style=" stroke:none;fill-rule:nonzero;fill:#FFFFFF;fill-opacity:1;" d="M 442.5 285 L 417.5 285 C 416.121094 285 415 283.878906 415 282.5 C 415 281.121094 416.121094 280 417.5 280 L 442.5 280 C 443.878906 280 445 281.121094 445 282.5 C 445 283.878906 443.886719 285 442.5 285 Z "/>
<path style=" stroke:none;fill-rule:nonzero;fill:#FFFFFF;fill-opacity:1;" d="M 427.5 315 L 417.5 315 C 416.121094 315 415 313.878906 415 312.5 C 415 311.121094 416.121094 310 417.5 310 L 427.5 310 C 428.878906 310 430 311.121094 430 312.5 C 430 313.878906 428.878906 315 427.5 315 Z "/>
<path style=" stroke:none;fill-rule:nonzero;fill:#F15B6C;fill-opacity:1;" d="M 144.773438 336.5 C 142.488281 336.5 140.460938 335.335938 139.328125 333.375 C 138.226563 331.460938 138.230469 329.175781 139.335938 327.261719 L 244.566406 145.699219 C 245.695313 143.753906 247.726563 142.59375 250 142.59375 C 252.273438 142.59375 254.304688 143.753906 255.433594 145.703125 L 360.660156 327.265625 C 361.769531 329.179688 361.769531 331.464844 360.664063 333.378906 C 359.535156 335.339844 357.503906 336.503906 355.21875 336.503906 L 144.773438 336.503906 Z "/>
<path style=" stroke:none;fill-rule:nonzero;fill:#472B29;fill-opacity:1;" d="M 250 146.089844 C 250.605469 146.089844 251.71875 146.265625 252.40625 147.453125 L 357.628906 329.015625 C 358.289063 330.148438 357.914063 331.140625 357.636719 331.625 C 357.339844 332.140625 356.636719 332.996094 355.226563 332.996094 L 144.773438 332.996094 C 143.363281 332.996094 142.660156 332.136719 142.363281 331.625 C 142.085938 331.136719 141.710938 330.148438 142.371094 329.015625 L 247.59375 147.453125 C 248.28125 146.269531 249.394531 146.089844 250 146.089844 M 250 139.089844 C 246.703125 139.089844 243.414063 140.710938 241.535156 143.945313 L 136.308594 325.503906 C 132.574219 331.953125 137.269531 340 144.773438 340 L 355.226563 340 C 362.730469 340 367.425781 331.953125 363.691406 325.503906 L 258.464844 143.945313 C 256.585938 140.710938 253.296875 139.089844 250 139.089844 Z "/>
<path style=" stroke:none;fill-rule:nonzero;fill:#FEF6AA;fill-opacity:1;" d="M 331.210938 317.953125 C 330.976563 318.371094 330.554688 318.605469 330.085938 318.605469 L 169.914063 318.605469 C 169.445313 318.605469 169.023438 318.371094 168.789063 317.953125 C 168.554688 317.566406 168.554688 317.070313 168.765625 316.648438 L 248.851563 175.078125 C 249.320313 174.269531 250.683594 174.269531 251.15625 175.078125 L 331.238281 316.648438 C 331.449219 317.070313 331.449219 317.566406 331.210938 317.953125 Z "/>
<path style=" stroke:none;fill-rule:nonzero;fill:#472B29;fill-opacity:1;" d="M 330.085938 319.410156 L 169.914063 319.410156 C 168.535156 319.410156 167.304688 318.699219 166.621094 317.511719 C 165.96875 316.433594 165.925781 315.046875 166.535156 313.84375 C 167.160156 312.609375 168.671875 312.125 169.894531 312.75 C 170.578125 313.101563 171.035156 313.714844 171.195313 314.410156 L 328.035156 314.410156 L 283.535156 236.734375 C 282.851563 235.535156 283.265625 234.011719 284.464844 233.320313 C 285.660156 232.640625 287.183594 233.050781 287.878906 234.25 L 333.414063 313.734375 C 334.085938 315.046875 334.039063 316.433594 333.355469 317.566406 C 332.699219 318.699219 331.464844 319.410156 330.085938 319.410156 Z M 329.011719 316.113281 L 329.058594 316.113281 Z "/>
<path style=" stroke:none;fill-rule:nonzero;fill:#472B29;fill-opacity:1;" d="M 279.046875 226.296875 C 278.179688 226.296875 277.335938 225.84375 276.871094 225.039063 L 269.734375 212.574219 C 269.050781 211.375 269.464844 209.851563 270.664063 209.160156 C 271.871094 208.46875 273.394531 208.890625 274.078125 210.089844 L 281.214844 222.554688 C 281.898438 223.753906 281.484375 225.28125 280.285156 225.96875 C 279.890625 226.191406 279.464844 226.296875 279.046875 226.296875 Z "/>
<path style=" stroke:none;fill-rule:nonzero;fill:#472B29;fill-opacity:1;" d="M 179.558594 298.609375 C 179.140625 298.609375 178.714844 298.503906 178.320313 298.28125 C 177.121094 297.59375 176.703125 296.066406 177.390625 294.863281 L 246.675781 173.828125 C 248.035156 171.519531 251.976563 171.546875 253.304688 173.804688 L 268.554688 200.398438 C 269.246094 201.59375 268.828125 203.125 267.628906 203.808594 C 266.433594 204.5 264.90625 204.078125 264.21875 202.886719 L 250 178.09375 L 181.734375 297.351563 C 181.269531 298.15625 180.425781 298.609375 179.558594 298.609375 Z "/>
<path style=" stroke:none;fill-rule:nonzero;fill:#F15B6C;fill-opacity:1;" d="M 258.769531 292.269531 C 258.769531 297.113281 254.84375 301.039063 250 301.039063 C 245.15625 301.039063 241.230469 297.113281 241.230469 292.269531 C 241.230469 287.425781 245.15625 283.5 250 283.5 C 254.84375 283.5 258.769531 287.425781 258.769531 292.269531 Z "/>
<path style=" stroke:none;fill-rule:nonzero;fill:#472B29;fill-opacity:1;" d="M 250 302.289063 C 244.476563 302.289063 239.980469 297.796875 239.980469 292.273438 C 239.980469 286.753906 244.476563 282.261719 250 282.261719 C 255.519531 282.261719 260.015625 286.753906 260.015625 292.273438 C 260.015625 297.796875 255.519531 302.289063 250 302.289063 Z M 250 284.753906 C 245.855469 284.753906 242.480469 288.125 242.480469 292.269531 C 242.480469 296.414063 245.855469 299.785156 250 299.785156 C 254.144531 299.785156 257.515625 296.414063 257.515625 292.269531 C 257.515625 288.125 254.144531 284.753906 250 284.753906 Z "/>
<path style=" stroke:none;fill-rule:nonzero;fill:#F15B6C;fill-opacity:1;" d="M 244.175781 217.714844 L 255.816406 217.714844 C 257.460938 217.714844 258.78125 218.949219 258.734375 220.449219 L 257.410156 268.804688 C 257.371094 270.253906 256.074219 271.410156 254.488281 271.410156 L 245.5 271.410156 C 243.914063 271.410156 242.621094 270.253906 242.578125 268.804688 L 241.253906 220.449219 C 241.214844 218.949219 242.535156 217.714844 244.175781 217.714844 Z "/>
<path style=" stroke:none;fill-rule:nonzero;fill:#472B29;fill-opacity:1;" d="M 254.496094 272.660156 L 245.5 272.660156 C 243.214844 272.660156 241.386719 270.984375 241.328125 268.839844 L 240.003906 220.484375 C 239.980469 219.464844 240.363281 218.496094 241.09375 217.738281 C 241.886719 216.929688 243.003906 216.464844 244.175781 216.464844 L 255.820313 216.464844 C 256.988281 216.464844 258.109375 216.929688 258.898438 217.738281 C 259.628906 218.488281 260.019531 219.46875 259.988281 220.484375 L 258.664063 268.839844 C 258.609375 270.984375 256.773438 272.660156 254.496094 272.660156 Z M 244.175781 218.964844 C 243.675781 218.964844 243.203125 219.15625 242.886719 219.484375 C 242.699219 219.671875 242.488281 219.984375 242.5 220.421875 L 243.824219 268.773438 C 243.84375 269.539063 244.59375 270.160156 245.496094 270.160156 L 254.488281 270.160156 C 255.390625 270.160156 256.144531 269.535156 256.160156 268.773438 L 257.484375 220.421875 C 257.496094 219.984375 257.285156 219.675781 257.101563 219.484375 C 256.78125 219.15625 256.308594 218.964844 255.816406 218.964844 Z "/>
<path style=" stroke:none;fill-rule:nonzero;fill:#FDFCEF;fill-opacity:1;" d="M 167.5 367.5 C 167.5 367.5 175.335938 367.5 185 367.5 C 194.664063 367.5 202.5 359.664063 202.5 350 C 202.5 341.09375 195.824219 333.828125 187.226563 332.726563 C 187.363281 331.828125 187.5 330.933594 187.5 330 C 187.5 320.335938 179.664063 312.5 170 312.5 C 164.839844 312.5 160.25 314.773438 157.050781 318.324219 C 155.128906 309.285156 147.113281 302.5 137.5 302.5 C 126.453125 302.5 117.5 311.453125 117.5 322.5 C 117.5 323.453125 117.648438 324.371094 117.78125 325.289063 C 115.640625 323.570313 112.960938 322.5 110 322.5 C 103.859375 322.5 98.773438 326.933594 97.726563 332.773438 C 96.828125 332.636719 95.933594 332.5 95 332.5 C 85.335938 332.5 77.5 340.335938 77.5 350 C 77.5 359.664063 85.335938 367.5 95 367.5 C 104.664063 367.5 132.5 367.5 132.5 367.5 L 132.5 370 L 167.5 370 Z "/>
<path style=" stroke:none;fill-rule:nonzero;fill:#472B29;fill-opacity:1;" d="M 176.25 345 C 175.558594 345 175 344.441406 175 343.75 C 175 337.636719 179.976563 332.660156 186.089844 332.660156 C 186.261719 332.703125 189.773438 332.65625 192.308594 333.339844 C 192.976563 333.519531 193.371094 334.203125 193.191406 334.871094 C 193.011719 335.539063 192.324219 335.933594 191.660156 335.75 C 189.441406 335.148438 186.160156 335.148438 186.09375 335.160156 C 181.355469 335.160156 177.5 339.015625 177.5 343.75 C 177.5 344.441406 176.941406 345 176.25 345 Z "/>
<path style=" stroke:none;fill-rule:nonzero;fill:#472B29;fill-opacity:1;" d="M 145 367.5 C 145 368.878906 143.878906 370 142.5 370 C 141.121094 370 140 368.878906 140 367.5 C 140 366.121094 141.121094 365 142.5 365 C 143.878906 365 145 366.121094 145 367.5 Z "/>
<path style=" stroke:none;fill-rule:nonzero;fill:#472B29;fill-opacity:1;" d="M 185 370 L 167.5 370 C 166.121094 370 165 368.878906 165 367.5 C 165 366.121094 166.121094 365 167.5 365 L 185 365 C 193.269531 365 200 358.269531 200 350 C 200 342.519531 194.375 336.160156 186.910156 335.203125 C 186.238281 335.113281 185.636719 334.765625 185.230469 334.226563 C 184.824219 333.683594 184.65625 333.003906 184.761719 332.339844 C 184.875 331.570313 185 330.800781 185 330 C 185 321.730469 178.269531 315 170 315 C 165.75 315 161.808594 316.773438 158.90625 320 C 158.28125 320.695313 157.300781 320.988281 156.40625 320.738281 C 155.496094 320.496094 154.800781 319.765625 154.605469 318.84375 C 152.898438 310.824219 145.703125 305 137.5 305 C 127.851563 305 120 312.851563 120 322.5 C 120 323.214844 120.105469 323.898438 120.203125 324.589844 C 120.351563 325.605469 119.890625 326.78125 118.996094 327.289063 C 118.101563 327.800781 117.015625 327.878906 116.214844 327.238281 C 114.390625 325.773438 112.246094 325 110 325 C 105.171875 325 101.039063 328.453125 100.183594 333.21875 C 99.945313 334.554688 98.703125 335.449219 97.339844 335.246094 C 96.570313 335.125 95.800781 335 95 335 C 86.730469 335 80 341.730469 80 350 C 80 358.269531 86.730469 365 95 365 L 132.5 365 C 133.878906 365 135 366.121094 135 367.5 C 135 368.878906 133.878906 370 132.5 370 L 95 370 C 83.96875 370 75 361.03125 75 350 C 75 338.96875 83.96875 330 95 330 C 95.296875 330 95.578125 330.011719 95.871094 330.03125 C 97.941406 324.101563 103.554688 320 110 320 C 111.746094 320 113.445313 320.304688 115.054688 320.898438 C 115.878906 309.234375 125.628906 300 137.5 300 C 146.65625 300 154.828125 305.636719 158.265625 313.871094 C 161.664063 311.378906 165.773438 310 170 310 C 181.03125 310 190 318.96875 190 330 C 190 330.238281 189.996094 330.476563 189.980469 330.710938 C 198.695313 332.949219 205 340.84375 205 350 C 205 361.03125 196.03125 370 185 370 Z "/>
<path style=" stroke:none;fill-rule:nonzero;fill:#472B29;fill-opacity:1;" d="M 157.5 365 C 156.703125 365 153.296875 365 152.5 365 C 151.121094 365 150 366.121094 150 367.5 C 150 368.878906 151.121094 370 152.5 370 C 153.296875 370 156.703125 370 157.5 370 C 158.878906 370 160 368.878906 160 367.5 C 160 366.121094 158.878906 365 157.5 365 Z "/>
</g>
</svg>
