<svg xmlns="http://www.w3.org/2000/svg" xmlns:xlink="http://www.w3.org/1999/xlink"  viewBox="0 0 24 24"><defs><path id="best-fit-path" d="M17 3.2v.6a.2.2 0 0 1-.2.2H2.2a.2.2 0 0 1-.2-.2v-.6c0-.11.09-.2.2-.2h14.6c.11 0 .2.09.2.2zm0 12v.6a.2.2 0 0 1-.2.2H2.2a.2.2 0 0 1-.2-.2v-.6c0-.11.09-.2.2-.2h14.6c.11 0 .2.09.2.2zM2.2 6h14.6c.11 0 .2.09.2.2v6.6a.2.2 0 0 1-.2.2H2.2a.2.2 0 0 1-.2-.2V6.2c0-.11.09-.2.2-.2zM3 7v5h13V7H3z"></path><path id="best-fit-path" d="M17 3.2v.6a.2.2 0 0 1-.2.2H2.2a.2.2 0 0 1-.2-.2v-.6c0-.11.09-.2.2-.2h14.6c.11 0 .2.09.2.2zm0 12v.6a.2.2 0 0 1-.2.2H2.2a.2.2 0 0 1-.2-.2v-.6c0-.11.09-.2.2-.2h14.6c.11 0 .2.09.2.2zM2.2 6h14.6c.11 0 .2.09.2.2v6.6a.2.2 0 0 1-.2.2H2.2a.2.2 0 0 1-.2-.2V6.2c0-.11.09-.2.2-.2zM3 7v5h13V7H3z"></path><path id="best-fit-path" d="M17 3.2v.6a.2.2 0 0 1-.2.2H2.2a.2.2 0 0 1-.2-.2v-.6c0-.11.09-.2.2-.2h14.6c.11 0 .2.09.2.2zm0 12v.6a.2.2 0 0 1-.2.2H2.2a.2.2 0 0 1-.2-.2v-.6c0-.11.09-.2.2-.2h14.6c.11 0 .2.09.2.2zM2.2 6h14.6c.11 0 .2.09.2.2v6.6a.2.2 0 0 1-.2.2H2.2a.2.2 0 0 1-.2-.2V6.2c0-.11.09-.2.2-.2zM3 7v5h13V7H3z"></path></defs><g fill-rule="evenodd" ><mask id="best-fit-mask"><use xlink:href="#best-fit-path"></use></mask><use fill-rule="nonzero" xlink:href="#best-fit-path" ></use></g></svg>