<svg xmlns="http://www.w3.org/2000/svg" xmlns:xlink="http://www.w3.org/1999/xlink" viewBox="0 0 24 24"><defs><path id="full-width-path" d="M17 3.2v.6a.2.2 0 0 1-.2.2H2.2a.2.2 0 0 1-.2-.2v-.6c0-.11.09-.2.2-.2h14.6c.11 0 .2.09.2.2zm0 12v.6a.2.2 0 0 1-.2.2H2.2a.2.2 0 0 1-.2-.2v-.6c0-.11.09-.2.2-.2h14.6c.11 0 .2.09.2.2zM.2 6h18.6c.11 0 .2.09.2.2v6.6a.2.2 0 0 1-.2.2H.2a.2.2 0 0 1-.2-.2V6.2c0-.11.09-.2.2-.2zM1 7v5h17V7H1z"></path><path id="full-width-path" d="M17 3.2v.6a.2.2 0 0 1-.2.2H2.2a.2.2 0 0 1-.2-.2v-.6c0-.11.09-.2.2-.2h14.6c.11 0 .2.09.2.2zm0 12v.6a.2.2 0 0 1-.2.2H2.2a.2.2 0 0 1-.2-.2v-.6c0-.11.09-.2.2-.2h14.6c.11 0 .2.09.2.2zM.2 6h18.6c.11 0 .2.09.2.2v6.6a.2.2 0 0 1-.2.2H.2a.2.2 0 0 1-.2-.2V6.2c0-.11.09-.2.2-.2zM1 7v5h17V7H1z"></path><path id="full-width-path" d="M17 3.2v.6a.2.2 0 0 1-.2.2H2.2a.2.2 0 0 1-.2-.2v-.6c0-.11.09-.2.2-.2h14.6c.11 0 .2.09.2.2zm0 12v.6a.2.2 0 0 1-.2.2H2.2a.2.2 0 0 1-.2-.2v-.6c0-.11.09-.2.2-.2h14.6c.11 0 .2.09.2.2zM.2 6h18.6c.11 0 .2.09.2.2v6.6a.2.2 0 0 1-.2.2H.2a.2.2 0 0 1-.2-.2V6.2c0-.11.09-.2.2-.2zM1 7v5h17V7H1z"></path></defs><g  ><mask id="full-width-mask"><use xlink:href="#full-width-path"></use></mask><use fill-rule="nonzero" xlink:href="#full-width-path" ></use><g mask="url(#full-width-mask)" ><path d="M0 1h19v17H0z" ></path></g></g></svg>