<svg xmlns="http://www.w3.org/2000/svg" width="27" height="27" viewBox="0 0 27 27">
  <g id="Shadow_1" data-name="Shadow 1" transform="translate(-531 -804)">
    <g id="Group_10326" data-name="Group 10326">
      <g id="Group_10322" data-name="Group 10322" transform="translate(540 804)">
        <rect id="Rectangle_2946" data-name="Rectangle 2946" width="9" height="9" fill="#d3d3d3"/>
        <rect id="Rectangle_2947" data-name="Rectangle 2947" width="9" height="9" transform="translate(0 9)" fill="#afafaf"/>
      </g>
      <g id="Group_10325" data-name="Group 10325" transform="translate(531 831) rotate(-90)">
        <rect id="Rectangle_2946-2" data-name="Rectangle 2946" width="9" height="9" transform="translate(0 9)" fill="#d3d3d3"/>
        <path id="Rectangle_2947-2" data-name="Rectangle 2947" d="M2,0H9A0,0,0,0,1,9,0V9A0,0,0,0,1,9,9H0A0,0,0,0,1,0,9V2A2,2,0,0,1,2,0Z" fill="#afafaf"/>
        <path id="Rectangle_2948" data-name="Rectangle 2948" d="M0,0H9A0,0,0,0,1,9,0V9A0,0,0,0,1,9,9H2A2,2,0,0,1,0,7V0A0,0,0,0,1,0,0Z" transform="translate(0 18)" fill="#afafaf"/>
      </g>
    </g>
    <g id="Group_10321" data-name="Group 10321" transform="translate(531 804)">
      <rect id="Rectangle_2946-3" data-name="Rectangle 2946" width="9" height="9" transform="translate(0 9)" fill="#d3d3d3"/>
      <path id="Rectangle_2947-3" data-name="Rectangle 2947" d="M2,0H9A0,0,0,0,1,9,0V9A0,0,0,0,1,9,9H0A0,0,0,0,1,0,9V2A2,2,0,0,1,2,0Z" fill="#afafaf"/>
    </g>
    <g id="Group_10323" data-name="Group 10323" transform="translate(549 804)">
      <rect id="Rectangle_2946-4" data-name="Rectangle 2946" width="9" height="9" transform="translate(0 9)" fill="#d3d3d3"/>
      <path id="Rectangle_2947-4" data-name="Rectangle 2947" d="M0,0H7A2,2,0,0,1,9,2V9A0,0,0,0,1,9,9H0A0,0,0,0,1,0,9V0A0,0,0,0,1,0,0Z" fill="#afafaf"/>
    </g>
    <g id="Rectangle_2945" data-name="Rectangle 2945" transform="translate(531 804)" fill="none" stroke="#000" stroke-width="0.5">
      <rect width="27" height="27" rx="2" stroke="none"/>
      <rect x="0.25" y="0.25" width="26.5" height="26.5" rx="1.75" fill="none"/>
    </g>
  </g>
</svg>
