<svg xmlns="http://www.w3.org/2000/svg" xmlns:xlink="http://www.w3.org/1999/xlink" viewBox="0 0 100 100"><path fill="#ccac94" d="M28.665,54.344C28.567,54.217,28,53.588,28,53.588v-3.647C28,43.784,23.053,39,17.029,39 c-0.01,0-0.019,0.001-0.029,0.001S16.981,39,16.971,39C10.947,39,6,43.784,6,49.941v3.647c0,0-0.567,0.629-0.665,0.756 c-0.163,0.215-0.318,0.541-0.334,0.99c-0.01,0.271,0.642,3.695,0.831,4.283C6.04,60.277,6.456,60.818,7,61v0.49 c0,1.216,0.569,2.394,0.993,3.039c1.272,1.937,3.199,3.355,5.007,4.263c0,0.07,0,0.138,0,0.208c0,2.031-2,2.75-2,2.75S12,76,17,76 s6-4.25,6-4.25S21,71,21,69c0-0.07,0-0.138,0-0.208c1.808-0.908,3.736-2.326,5.007-4.263C26.431,63.884,27,62.706,27,61.49V61 c0.544-0.182,0.96-0.723,1.168-1.384c0.189-0.588,0.841-4.012,0.831-4.283C28.982,54.885,28.828,54.559,28.665,54.344z"/><path fill="#a3a3cd" d="M32.974,78.641l-0.006-0.006c-0.517-2.292-2.155-4.188-4.378-5.054L23,71.75l-0.867-0.253 l-0.006,0.015C22.118,71.527,21.142,73,17,73c-4.134,0-5.115-1.467-5.125-1.482L11.857,71.5L11,71.75l-5.59,1.832 c-2.223,0.867-3.861,2.762-4.378,5.054l-0.006,0.006C0.873,79.34,1.413,80,2.141,80H31.86C32.587,80,33.127,79.34,32.974,78.641z"/><path fill="#565fa1" d="M7.5,56c-0.164,0-0.321-0.081-0.416-0.222C5.063,54.119,4,51.598,4,48.5C4,42.355,9.042,36,17.479,36 c4.334,0,6.794,1.912,7.666,3.66C27.977,40.089,30,43.733,30,48.5c0,5.075-3.08,7.315-3.211,7.408 c-0.153,0.109-0.358,0.122-0.523,0.033c-0.167-0.089-0.27-0.265-0.266-0.454c0.001-0.024,0.038-2.42-1.465-4.713 c-0.16-0.244-0.38-0.505-0.621-0.795c-0.275-0.33-0.578-0.694-0.866-1.104c-0.577-0.823-0.838-1.553-0.955-2.272 C21.034,48.48,18.969,51,15.5,51c-0.192,0-0.367-0.11-0.45-0.283c-0.084-0.173-0.061-0.379,0.06-0.529 c1.054-1.317,1.598-2.799,1.798-3.845c-3.379,1.881-5.945,6.355-5.973,6.404c-0.076,0.136-0.213,0.228-0.367,0.249 c-0.152,0.019-0.31-0.032-0.421-0.142c-0.034-0.034-0.633-0.646-0.951-1.829C8.016,53.397,8,55.476,8,55.5 c0,0.22-0.144,0.415-0.354,0.479C7.598,55.993,7.549,56,7.5,56z"/><path fill="none" stroke="#1f212b" d="M8.411,64.255c2.261,3.444,6.774,5.245,8.56,5.245 c1.844,0,6.358-1.801,8.619-5.245"/><path fill="none" stroke="#1f212b" stroke-linecap="round" d="M19.5 73.286c2.431-.459 3.05-1.504 3.057-1.518M11.447 71.776C11.452 71.785 12.451 73.5 17 73.5c.175 0 .335-.007.5-.012"/><path fill="none" stroke="#1f212b" d="M8.411,64.255c2.261,3.444,6.774,5.245,8.56,5.245 c1.844,0,6.358-1.801,8.619-5.245"/><path fill="none" stroke="#1f212b" stroke-linejoin="round" stroke-width="2" d="M6,53.588 c0,0-0.567,0.629-0.665,0.756c-0.163,0.215-0.318,0.541-0.334,0.99c-0.01,0.271,0.642,3.695,0.831,4.283 C6.04,60.277,6.456,60.818,7,61v0.49c0,1.216,0.569,2.394,0.993,3.039c1.272,1.937,3.199,3.355,5.007,4.263c0,0.07,0,0.138,0,0.208 c0,2.031-2,2.75-2,2.75l-5.59,1.832c-2.223,0.867-3.861,2.762-4.378,5.054l-0.006,0.006C0.873,79.34,1.413,80,2.141,80H31.86 c0.728,0,1.268-0.66,1.115-1.359l-0.006-0.006c-0.517-2.292-2.155-4.188-4.378-5.054L23,71.75c0,0-2-0.75-2-2.75 c0-0.07,0-0.138,0-0.208c1.808-0.908,3.736-2.326,5.007-4.263C26.431,63.884,27,62.706,27,61.49V61 c0.544-0.182,0.96-0.723,1.168-1.384c0.189-0.588,0.841-4.012,0.831-4.283c-0.016-0.448-0.17-0.774-0.334-0.99 c-0.098-0.127-0.54-0.719-0.54-0.719"/><path fill="none" stroke="#1f212b" stroke-linecap="round" d="M19.5 73.286c2.431-.459 3.05-1.504 3.057-1.518M11.447 71.776C11.452 71.785 12.451 73.5 17 73.5c.175 0 .335-.007.5-.012"/><path fill="none" stroke="#1f212b" stroke-linecap="round" stroke-linejoin="round" d="M26.5,55.5 c0,0,3-2.125,3-7c0-4.687-1.985-8.188-4.692-8.375c-0.587-1.436-2.695-3.625-7.33-3.625C9.5,36.5,4.5,42.5,4.5,48.5 c0,5,2.907,6.861,3,7c0,0,0-3,2-6c0,2,1,3,1,3s3.039-5.359,7-7c0,1-0.5,3.125-2,5c4.665,0,6.657-4.97,7-6 c0,1.491-0.076,2.614,0.957,4.087c0.547,0.779,1.149,1.386,1.495,1.913C26.569,52.964,26.5,55.5,26.5,55.5z"/><path fill="#a6785f" stroke="#b07454" d="M94.665,54.344C94.567,54.217,94,53.588,94,53.588v-3.647 C94,43.784,89.053,39,83.029,39c-0.01,0-0.019,0.001-0.029,0.001S82.981,39,82.971,39C76.947,39,72,43.784,72,49.941v3.647 c0,0-0.567,0.629-0.665,0.756c-0.163,0.215-0.318,0.541-0.334,0.99c-0.01,0.271,0.642,3.695,0.831,4.283 C72.04,60.277,72.456,60.818,73,61v0.49c0,1.216,0.569,2.394,0.993,3.039c1.272,1.937,3.199,3.355,5.007,4.263 c0,0.07,0,0.138,0,0.208c0,2.031-2,2.75-2,2.75S78,76,83,76s6-4.25,6-4.25S87,71,87,69c0-0.07,0-0.138,0-0.208 c1.808-0.908,3.736-2.326,5.007-4.263C92.431,63.884,93,62.706,93,61.49V61c0.544-0.182,0.96-0.723,1.168-1.384 c0.189-0.588,0.841-4.012,0.831-4.283C94.982,54.885,94.828,54.559,94.665,54.344z"/><path fill="#a3a3cd" d="M98.974,78.641l-0.006-0.006c-0.517-2.292-2.155-4.188-4.378-5.054L89,71.75l-0.867-0.253 l-0.006,0.015C88.118,71.527,87.142,73,83,73c-4.134,0-5.115-1.467-5.125-1.482L77.857,71.5L77,71.75l-5.59,1.832 c-2.223,0.867-3.861,2.762-4.378,5.054l-0.006,0.006C66.873,79.34,67.413,80,68.141,80H97.86C98.587,80,99.127,79.34,98.974,78.641z"/><path fill="#565fa1" d="M73.5,56c-0.164,0-0.321-0.081-0.416-0.222C71.063,54.119,70,51.598,70,48.5 C70,42.355,75.042,36,83.479,36c4.334,0,6.794,1.912,7.666,3.66C93.977,40.089,96,43.733,96,48.5c0,5.075-3.08,7.315-3.211,7.408 c-0.153,0.109-0.358,0.122-0.523,0.033c-0.167-0.089-0.27-0.265-0.266-0.454c0.001-0.024,0.038-2.42-1.465-4.713 c-0.16-0.244-0.38-0.505-0.621-0.795c-0.275-0.33-0.578-0.694-0.866-1.104c-0.577-0.823-0.838-1.553-0.955-2.272 C87.034,48.48,84.969,51,81.5,51c-0.192,0-0.367-0.11-0.45-0.283c-0.084-0.173-0.061-0.379,0.06-0.529 c1.054-1.317,1.598-2.799,1.798-3.845c-3.379,1.881-5.945,6.355-5.973,6.404c-0.076,0.136-0.213,0.228-0.367,0.249 c-0.152,0.019-0.31-0.032-0.421-0.142c-0.034-0.034-0.633-0.646-0.951-1.829C74.016,53.397,74,55.476,74,55.5 c0,0.22-0.144,0.415-0.354,0.479C73.598,55.993,73.549,56,73.5,56z"/><path fill="none" stroke="#1f212b" d="M74.411,64.255c2.261,3.444,6.774,5.245,8.56,5.245 c1.844,0,6.358-1.801,8.619-5.245"/><path fill="none" stroke="#1f212b" stroke-linecap="round" d="M85.5 73.286c2.431-.459 3.05-1.504 3.057-1.518M77.447 71.776C77.452 71.785 78.451 73.5 83 73.5c.175 0 .335-.007.5-.012"/><path fill="none" stroke="#1f212b" d="M74.411,64.255c2.261,3.444,6.774,5.245,8.56,5.245 c1.844,0,6.358-1.801,8.619-5.245"/><path fill="none" stroke="#1f212b" stroke-linejoin="round" stroke-width="2" d="M72,53.588 c0,0-0.567,0.629-0.665,0.756c-0.163,0.215-0.318,0.541-0.334,0.99c-0.01,0.271,0.642,3.695,0.831,4.283 C72.04,60.277,72.456,60.818,73,61v0.49c0,1.216,0.569,2.394,0.993,3.039c1.272,1.937,3.199,3.355,5.007,4.263 c0,0.07,0,0.138,0,0.208c0,2.031-2,2.75-2,2.75l-5.59,1.832c-2.223,0.867-3.861,2.762-4.378,5.054l-0.006,0.006 C66.873,79.34,67.413,80,68.141,80H97.86c0.728,0,1.268-0.66,1.115-1.359l-0.006-0.006c-0.517-2.292-2.155-4.188-4.378-5.054 L89,71.75c0,0-2-0.75-2-2.75c0-0.07,0-0.138,0-0.208c1.808-0.908,3.736-2.326,5.007-4.263C92.431,63.884,93,62.706,93,61.49V61 c0.544-0.182,0.96-0.723,1.168-1.384c0.189-0.588,0.841-4.012,0.831-4.283c-0.016-0.448-0.17-0.774-0.334-0.99 c-0.098-0.127-0.54-0.719-0.54-0.719"/><path fill="none" stroke="#1f212b" stroke-linecap="round" d="M85.5 73.286c2.431-.459 3.05-1.504 3.057-1.518M77.447 71.776C77.452 71.785 78.451 73.5 83 73.5c.175 0 .335-.007.5-.012"/><path fill="none" stroke="#1f212b" stroke-linecap="round" stroke-linejoin="round" d="M92.5,55.5 c0,0,3-2.125,3-7c0-4.687-1.985-8.188-4.692-8.375c-0.587-1.436-2.695-3.625-7.33-3.625c-7.978,0-12.978,6-12.978,12 c0,5,2.907,6.861,3,7c0,0,0-3,2-6c0,2,1,3,1,3s3.039-5.359,7-7c0,1-0.5,3.125-2,5c4.665,0,6.657-4.97,7-6 c0,1.491-0.076,2.614,0.957,4.087c0.547,0.779,1.149,1.386,1.495,1.913C92.569,52.964,92.5,55.5,92.5,55.5z"/><path fill="#ead6c7" d="M64.581,41.93c-0.122-0.159-0.831-0.944-0.831-0.944v-4.559c0-7.697-6.184-13.676-13.714-13.676 c-0.012,0-0.024,0.002-0.036,0.002s-0.024-0.002-0.036-0.002c-7.53,0-13.714,5.98-13.714,13.676v4.559c0,0-0.709,0.786-0.831,0.944 c-0.204,0.269-0.397,0.676-0.417,1.237c-0.012,0.339,0.802,4.619,1.039,5.354c0.26,0.826,0.78,1.503,1.46,1.73v0.613 c0,1.52,0.712,2.993,1.241,3.799c1.59,2.422,2.999,4.194,5.259,5.329c0,0.087,0,2.172,0,2.259c0,2.539-1.5,3.438-1.5,3.438 S43.75,72,50,72s7.5-6.313,7.5-6.313S56,64.75,56,62.25c0-0.087,0-1.913,0-2c2.26-1.135,3.669-3.167,5.259-5.588 c0.529-0.806,1.241-2.279,1.241-3.799V50.25c0.679-0.227,1.2-0.904,1.46-1.73c0.236-0.735,1.051-5.015,1.039-5.354 C64.978,42.606,64.786,42.199,64.581,41.93z"/><path fill="#f15b6c" d="M70,76c0-4-2.975-6.254-5.375-7.375c-1.547-0.723-6.125-2.938-6.125-2.938s-1.109-0.604-1.122-0.612 c-0.234-0.139-0.538-0.061-0.683,0.168C56.685,65.262,55.525,67,50,67s-6.685-1.738-6.689-1.745c-0.136-0.241-0.44-0.327-0.681-0.19 c-0.007,0.004-1.128,0.623-1.128,0.623s-4.578,2.215-6.125,2.938c-2.4,1.12-5.375,3.374-5.375,7.374c0,0.39-0.004,1.519,0,2 c0,1.105,0.895,2,2,2H50h0.002H68c1.105,0,2-0.895,2-2C70.004,77.519,70,76.39,70,76z"/><path fill="#b77748" d="M60.023,23.613C58.985,21.423,55.965,19,50.593,19C40.206,19,34,26.961,34,34.658 c0,2.694,0.701,6.46,4.041,9.108l0.041,0.009C38.177,43.918,38.336,44,38.5,44c0.06,0,0.12-0.011,0.179-0.033 c0.219-0.084,0.351-0.309,0.315-0.542c-0.004-0.026-0.325-2.349,1.164-5.332c0.321,1.428,1.026,1.81,1.128,1.857 c0.22,0.104,0.486,0.034,0.625-0.168c0.038-0.055,3.659-5.255,8.064-7.489c-0.089,1.352-0.467,3.111-1.869,4.896 c-0.118,0.151-0.14,0.355-0.056,0.528C48.134,37.891,48.309,38,48.5,38c2.421,0,5.563-0.966,7.643-5.26 c0.157,0.645,0.486,1.298,1.172,2.293c0.359,0.52,0.735,0.98,1.067,1.387c0.313,0.384,0.584,0.715,0.779,1.017 c1.89,2.936,1.839,6.002,1.838,6.033c-0.004,0.187,0.096,0.36,0.259,0.45s0.363,0.081,0.519-0.021C61.949,43.784,66,41.01,66,34.658 C66,28.669,63.505,24.101,60.023,23.613z"/><path fill="none" stroke="#1f212b" d="M50,62.5c2.5,0,6.75-2.75,6.75-2.75"/><path fill="none" stroke="#1f212b" stroke-linecap="round" d="M53.5 67.194c2.965-.587 3.625-1.694 3.625-1.694M42.875 65.5c0 0 1.125 2 7.125 2 .175 0 .333-.008.5-.011"/><path fill="none" stroke="#1f212b" stroke-linecap="round" stroke-linejoin="round" d="M61.293 41.5c.227 1.185.206 1.983.206 1.983s4.001-2.667 4.001-8.825c0-5.92-2.462-10.343-5.818-10.579-.728-1.813-3.341-4.579-9.089-4.579C40.7 19.5 34.5 27.079 34.5 34.658c0 6.316 3.885 8.667 4 8.842 0 0-.48-3.211 2-7 0 2.526 1 3 1 3s4.088-5.928 9-8c0 1.263-.14 3.632-2 6 1.154 0 2.143-.233 3-.607l2-1.304c1.944-1.782 2.736-4.282 3-5.089 0 1.883-.055 2.39 1.227 4.25.183.266.371.514.556.75M59.782 37.5c.405.679.72 1.357.956 2"/><path fill="none" stroke="#1f212b" stroke-linecap="round" d="M69.5 76.5L41.5 76.5M38.5 76.5L36.5 76.5M34.5 76.5L33.5 76.5"/><path fill="none" stroke="#1f212b" d="M43.252,59.75c0,0,4.25,2.75,6.75,2.75"/><path fill="none" stroke="#1f212b" stroke-linejoin="round" stroke-width="2" d="M36.096,41.031 c0,0-0.553,0.74-0.675,0.898c-0.204,0.269-0.397,0.676-0.417,1.237c-0.012,0.339,0.802,4.619,1.039,5.354 c0.26,0.826,0.78,1.503,1.46,1.73v0.613c0,1.52,0.721,3.331,1.25,4.137c1.59,2.422,3.125,4.395,5.25,5.77c0,0.087,0,1.393,0,1.48 c0,2.5-2.5,3.438-2.5,3.438s-4.578,2.215-6.125,2.938C32.977,69.746,30.002,72,30.002,76c0,0.39-0.004,1.519,0,2 c0,1.105,0.895,2,2,2h18H50h18c1.105,0,2-0.895,2-2c0.004-0.481,0-1.61,0-2c0-4-2.975-6.254-5.375-7.375 c-1.547-0.723-6.125-2.938-6.125-2.938S56,64.75,56,62.25c0-0.087,0-1.393,0-1.48c2.125-1.375,3.66-3.348,5.25-5.77 c0.529-0.806,1.25-2.618,1.25-4.137V50.25c0.679-0.227,1.2-0.904,1.46-1.73c0.236-0.735,1.051-5.015,1.039-5.354 c-0.02-0.561-0.213-0.968-0.417-1.237c-0.122-0.159-0.675-0.898-0.675-0.898"/></svg>