<?xml version="1.0" encoding="UTF-8"?>
<svg xmlns="http://www.w3.org/2000/svg" xmlns:xlink="http://www.w3.org/1999/xlink" width="48pt" height="48pt" viewBox="0 0 48 48" version="1.1">
<g id="surface1">
<path style=" stroke:none;fill-rule:nonzero;fill:#90CAF9;fill-opacity:1;" d="M 6 6 L 42 6 L 42 42 L 6 42 Z "/>
<path style=" stroke:none;fill-rule:nonzero;fill:#1976D2;fill-opacity:1;" d="M 13 17 L 35 17 L 35 19 L 13 19 Z "/>
<path style=" stroke:none;fill-rule:nonzero;fill:#1976D2;fill-opacity:1;" d="M 13 21 L 31 21 L 31 23 L 13 23 Z "/>
<path style=" stroke:none;fill-rule:nonzero;fill:#1976D2;fill-opacity:1;" d="M 13 13 L 33 13 L 33 15 L 13 15 Z "/>
<path style=" stroke:none;fill-rule:nonzero;fill:#1976D2;fill-opacity:1;" d="M 13 25 L 35 25 L 35 27 L 13 27 Z "/>
<path style=" stroke:none;fill-rule:nonzero;fill:#1976D2;fill-opacity:1;" d="M 13 29 L 13 31 L 27.441406 31 L 26.9375 29 Z "/>
<path style=" stroke:none;fill-rule:nonzero;fill:#E57373;fill-opacity:1;" d="M 44.859375 47.679688 L 47.675781 44.859375 C 48.105469 44.429688 48.105469 43.734375 47.675781 43.304688 L 46.351563 41.976563 L 41.976563 46.351563 L 43.304688 47.679688 C 43.730469 48.105469 44.429688 48.105469 44.859375 47.679688 "/>
<path style=" stroke:none;fill-rule:nonzero;fill:#FF9800;fill-opacity:1;" d="M 30.46875 34.847656 L 34.847656 30.472656 L 44.160156 39.789063 L 39.785156 44.164063 Z "/>
<path style=" stroke:none;fill-rule:nonzero;fill:#B0BEC5;fill-opacity:1;" d="M 39.785156 44.164063 L 44.160156 39.789063 L 46.347656 41.972656 L 41.972656 46.351563 Z "/>
<path style=" stroke:none;fill-rule:nonzero;fill:#FFC107;fill-opacity:1;" d="M 34.847656 30.472656 L 29 29 L 30.472656 34.847656 Z "/>
<path style=" stroke:none;fill-rule:nonzero;fill:#37474F;fill-opacity:1;" d="M 31.957031 29.742188 L 29 29 L 29.742188 31.957031 Z "/>
</g>
</svg>
