<?xml version="1.0" encoding="UTF-8"?>
<svg xmlns="http://www.w3.org/2000/svg" xmlns:xlink="http://www.w3.org/1999/xlink" width="48pt" height="48pt" viewBox="0 0 48 48" version="1.1">
<g id="surface1">
<path style=" stroke:none;fill-rule:nonzero;fill:#90CAF9;fill-opacity:1;" d="M 43 24 C 43 34.5 34.5 43 24 43 C 13.5 43 5 34.5 5 24 C 5 13.5 13.5 5 24 5 C 34.5 5 43 13.5 43 24 Z "/>
<path style=" stroke:none;fill-rule:nonzero;fill:#1565C0;fill-opacity:1;" d="M 24 44 C 13 44 4 35 4 24 C 4 13 13 4 24 4 C 35 4 44 13 44 24 C 44 35 35 44 24 44 Z M 24 6 C 14.101563 6 6 14.101563 6 24 C 6 33.898438 14.101563 42 24 42 C 33.898438 42 42 33.898438 42 24 C 42 14.101563 33.898438 6 24 6 Z "/>
<path style=" stroke:none;fill-rule:nonzero;fill:#1565C0;fill-opacity:1;" d="M 24 44 C 17.800781 44 13 35.199219 13 24 C 13 12.800781 17.800781 4 24 4 C 30.199219 4 35 12.800781 35 24 C 35 35.199219 30.199219 44 24 44 Z M 24 6 C 19.101563 6 15 14.199219 15 24 C 15 33.800781 19.101563 42 24 42 C 28.898438 42 33 33.800781 33 24 C 33 14.199219 28.898438 6 24 6 Z "/>
<path style=" stroke:none;fill-rule:nonzero;fill:#1565C0;fill-opacity:1;" d="M 40 16 L 8 16 C 7.398438 16 7 15.601563 7 15 C 7 14.398438 7.398438 14 8 14 L 40 14 C 40.601563 14 41 14.398438 41 15 C 41 15.601563 40.601563 16 40 16 Z "/>
<path style=" stroke:none;fill-rule:nonzero;fill:#1565C0;fill-opacity:1;" d="M 40 34 L 8 34 C 7.398438 34 7 33.601563 7 33 C 7 32.398438 7.398438 32 8 32 L 40 32 C 40.601563 32 41 32.398438 41 33 C 41 33.601563 40.601563 34 40 34 Z "/>
<path style=" stroke:none;fill-rule:nonzero;fill:#1565C0;fill-opacity:1;" d="M 5.101563 23 L 43 23 L 43 25 L 5.101563 25 Z "/>
<path style=" stroke:none;fill-rule:nonzero;fill:#1565C0;fill-opacity:1;" d="M 23 5.101563 L 25 5.101563 L 25 43 L 23 43 Z "/>
</g>
</svg>
